<mxfile host="app.diagrams.net" modified="2022-11-26T04:33:52.128Z" agent="5.0 (Windows NT 10.0; Win64; x64) AppleWebKit/537.36 (KHTML, like Gecko) Chrome/107.0.0.0 Safari/537.36" etag="1gMr7Xc9kuNB2GETHfNL" version="20.6.0" type="github">
  <diagram id="J1sLrtX11DQmOzzdEnN7" name="페이지-1">
    <mxGraphModel dx="772" dy="676" grid="1" gridSize="10" guides="1" tooltips="1" connect="1" arrows="1" fold="1" page="1" pageScale="1" pageWidth="827" pageHeight="1169" math="0" shadow="0">
      <root>
        <mxCell id="0" />
        <mxCell id="1" parent="0" />
        <mxCell id="W-5HYGKtgrPXbYsl8lIH-1" value="인사 1팀" style="rounded=0;whiteSpace=wrap;html=1;" parent="1" vertex="1">
          <mxGeometry x="30" y="10" width="130" height="40" as="geometry" />
        </mxCell>
        <mxCell id="W-5HYGKtgrPXbYsl8lIH-2" value="인사 2팀" style="rounded=0;whiteSpace=wrap;html=1;" parent="1" vertex="1">
          <mxGeometry x="283" y="10" width="130" height="40" as="geometry" />
        </mxCell>
        <mxCell id="W-5HYGKtgrPXbYsl8lIH-3" value="기획팀" style="rounded=0;whiteSpace=wrap;html=1;" parent="1" vertex="1">
          <mxGeometry x="530" y="10" width="130" height="40" as="geometry" />
        </mxCell>
        <mxCell id="W-5HYGKtgrPXbYsl8lIH-4" value="시작" style="html=1;dashed=0;whitespace=wrap;shape=mxgraph.dfd.start" parent="1" vertex="1">
          <mxGeometry x="47.5" y="80" width="95" height="40" as="geometry" />
        </mxCell>
        <mxCell id="W-5HYGKtgrPXbYsl8lIH-7" value="1. 요청 수신" style="rounded=1;whiteSpace=wrap;html=1;absoluteArcSize=1;arcSize=14;strokeWidth=2;" parent="1" vertex="1">
          <mxGeometry x="30" y="160" width="130" height="40" as="geometry" />
        </mxCell>
        <mxCell id="W-5HYGKtgrPXbYsl8lIH-8" value="2. 안전 보건 분야 평가" style="strokeWidth=2;html=1;shape=mxgraph.flowchart.decision;whiteSpace=wrap;" parent="1" vertex="1">
          <mxGeometry x="15" y="240" width="160" height="80" as="geometry" />
        </mxCell>
        <mxCell id="W-5HYGKtgrPXbYsl8lIH-9" value="5. 촉탁 전환 심사&lt;br&gt;위원회 구성" style="rounded=1;whiteSpace=wrap;html=1;absoluteArcSize=1;arcSize=14;strokeWidth=2;" parent="1" vertex="1">
          <mxGeometry x="283" y="460" width="130" height="40" as="geometry" />
        </mxCell>
        <mxCell id="W-5HYGKtgrPXbYsl8lIH-10" value="6. 촉탁 전환 심사" style="strokeWidth=2;html=1;shape=mxgraph.flowchart.decision;whiteSpace=wrap;" parent="1" vertex="1">
          <mxGeometry x="268" y="545" width="160" height="80" as="geometry" />
        </mxCell>
        <mxCell id="W-5HYGKtgrPXbYsl8lIH-11" value="7. 대표이사 보고" style="rounded=1;whiteSpace=wrap;html=1;absoluteArcSize=1;arcSize=14;strokeWidth=2;" parent="1" vertex="1">
          <mxGeometry x="30" y="564.5" width="130" height="40" as="geometry" />
        </mxCell>
        <mxCell id="W-5HYGKtgrPXbYsl8lIH-12" value="8. 전환 결정" style="strokeWidth=2;html=1;shape=mxgraph.flowchart.decision;whiteSpace=wrap;" parent="1" vertex="1">
          <mxGeometry x="15" y="640" width="160" height="80" as="geometry" />
        </mxCell>
        <mxCell id="W-5HYGKtgrPXbYsl8lIH-14" value="11. 촉탁직 인사발령" style="rounded=1;whiteSpace=wrap;html=1;absoluteArcSize=1;arcSize=14;strokeWidth=2;" parent="1" vertex="1">
          <mxGeometry x="30" y="760" width="130" height="40" as="geometry" />
        </mxCell>
        <mxCell id="W-5HYGKtgrPXbYsl8lIH-15" value="12. 입퇴사, 연차,&lt;br&gt;근태관리" style="rounded=1;whiteSpace=wrap;html=1;absoluteArcSize=1;arcSize=14;strokeWidth=2;" parent="1" vertex="1">
          <mxGeometry x="30" y="840" width="130" height="40" as="geometry" />
        </mxCell>
        <mxCell id="W-5HYGKtgrPXbYsl8lIH-16" value="끝" style="html=1;dashed=0;whitespace=wrap;shape=mxgraph.dfd.start" parent="1" vertex="1">
          <mxGeometry x="47.5" y="920" width="95" height="40" as="geometry" />
        </mxCell>
        <mxCell id="W-5HYGKtgrPXbYsl8lIH-17" value="3. 전환 평가 요청 수신" style="rounded=1;whiteSpace=wrap;html=1;absoluteArcSize=1;arcSize=14;strokeWidth=2;" parent="1" vertex="1">
          <mxGeometry x="283" y="260" width="130" height="40" as="geometry" />
        </mxCell>
        <mxCell id="W-5HYGKtgrPXbYsl8lIH-18" value="4. 전환 평가" style="strokeWidth=2;html=1;shape=mxgraph.flowchart.decision;whiteSpace=wrap;" parent="1" vertex="1">
          <mxGeometry x="268" y="340" width="160" height="80" as="geometry" />
        </mxCell>
        <mxCell id="W-5HYGKtgrPXbYsl8lIH-19" value="5. 퇴직 절차" style="rounded=1;whiteSpace=wrap;html=1;absoluteArcSize=1;arcSize=14;strokeWidth=2;" parent="1" vertex="1">
          <mxGeometry x="530" y="360" width="130" height="40" as="geometry" />
        </mxCell>
        <mxCell id="W-5HYGKtgrPXbYsl8lIH-20" value="9. 처우 협의" style="rounded=1;whiteSpace=wrap;html=1;absoluteArcSize=1;arcSize=14;strokeWidth=2;" parent="1" vertex="1">
          <mxGeometry x="530" y="660" width="130" height="40" as="geometry" />
        </mxCell>
        <mxCell id="W-5HYGKtgrPXbYsl8lIH-21" value="10. 촉탁계약서 작성" style="rounded=1;whiteSpace=wrap;html=1;absoluteArcSize=1;arcSize=14;strokeWidth=2;" parent="1" vertex="1">
          <mxGeometry x="530" y="760" width="130" height="40" as="geometry" />
        </mxCell>
      </root>
    </mxGraphModel>
  </diagram>
</mxfile>
